<svg width="24" height="20" viewBox="0 0 24 20" fill="none" xmlns="http://www.w3.org/2000/svg"><path d="M4.375 12.0694C4.375 11.6242 4.375 11.4016 4.56909 11.2633C4.76318 11.125 5.07556 11.125 5.70032 11.125C6.32508 11.125 6.63747 11.125 6.83155 11.2633C7.02564 11.4016 7.02564 11.6242 7.02564 12.0694V12.3056C7.02564 12.7508 7.02564 12.9734 6.83155 13.1117C6.63747 13.25 6.32508 13.25 5.70032 13.25C5.07556 13.25 4.76318 13.25 4.56909 13.1117C4.375 12.9734 4.375 12.7508 4.375 12.3056V12.0694Z" stroke="currentColor" stroke-width="1.5"/><path d="M6.63234 1.6875H17.6031" stroke="currentColor" stroke-width="1.5" stroke-linecap="round" stroke-linejoin="round"/><path d="M17.25 12.0694C17.25 11.6242 17.25 11.4016 17.4441 11.2633C17.6382 11.125 17.9506 11.125 18.5753 11.125C19.2001 11.125 19.5125 11.125 19.7065 11.2633C19.9006 11.4016 19.9006 11.6242 19.9006 12.0694V12.3056C19.9006 12.7508 19.9006 12.9734 19.7065 13.1117C19.5125 13.25 19.2001 13.25 18.5753 13.25C17.9506 13.25 17.6382 13.25 17.4441 13.1117C17.25 12.9734 17.25 12.7508 17.25 12.3056V12.0694Z" stroke="currentColor" stroke-width="1.5"/><path d="M1.625 11.7222C1.625 9.96755 1.625 9.09022 3.1371 8.54511C4.64922 8 7.08291 8 11.9503 8C16.8177 8 19.2515 8 20.7635 8.54511C22.2756 9.09022 22.2756 9.96755 22.2756 11.7222V12.6528C22.2756 14.4074 22.2756 15.2848 20.7635 15.8299C19.2515 16.375 16.8177 16.375 11.9503 16.375C7.08291 16.375 4.64922 16.375 3.1371 15.8299C1.625 15.2848 1.625 14.4074 1.625 12.6528V11.7222Z" stroke="currentColor" stroke-width="1.5"/><path d="M9.60657 12.2848H14.6691" stroke="currentColor" stroke-width="1.5" stroke-linecap="round" stroke-linejoin="round"/><path d="M3.8125 7.9048L6.49187 2.12207" stroke="currentColor" stroke-width="1.5" stroke-linecap="round" stroke-linejoin="round"/><path d="M20.4375 7.9048L17.7581 2.12207" stroke="currentColor" stroke-width="1.5" stroke-linecap="round" stroke-linejoin="round"/><path d="M3.61539 16.5V18C3.61539 18.5523 4.17617 19 4.86792 19H6.74673C7.43848 19 7.99927 18.5523 7.99927 18V17" stroke="currentColor" stroke-width="1.5" stroke-linecap="round" stroke-linejoin="round"/><path d="M15.9014 16.5V18C15.9014 18.5523 16.4622 19 17.1539 19H19.0327C19.7245 19 20.2853 18.5523 20.2853 18V17" stroke="currentColor" stroke-width="1.5" stroke-linecap="round" stroke-linejoin="round"/></svg>